<svg width="9" height="12" viewBox="0 0 9 12" fill="none" xmlns="http://www.w3.org/2000/svg">
<path d="M1.552 12V0.575999H4.56C5.95733 0.575999 6.992 0.858666 7.664 1.424C8.34667 1.98933 8.688 2.81067 8.688 3.888C8.688 4.61333 8.52267 5.23733 8.192 5.76C7.86133 6.272 7.37067 6.66667 6.72 6.944C6.08 7.22133 5.28533 7.36 4.336 7.36H2.992V12H1.552ZM0.16 9.824V8.784H5.632V9.824H0.16ZM0.16 7.36V6.144H3.824V7.36H0.16ZM4.128 6.144C4.77867 6.144 5.328 6.07467 5.776 5.936C6.23467 5.79733 6.58667 5.568 6.832 5.248C7.07733 4.928 7.2 4.49067 7.2 3.936C7.2 3.21067 6.976 2.672 6.528 2.32C6.08 1.968 5.38133 1.792 4.432 1.792H2.992V6.144H4.128Z" fill="#C1C1C1"/>
</svg>
